<svg width="154" height="154" viewBox="0 0 154 154" fill="none" xmlns="http://www.w3.org/2000/svg">
<path fill-rule="evenodd" clip-rule="evenodd" d="M73.7333 8.44379C75.8748 7.88006 78.1257 7.88006 80.2672 8.44379C82.7518 9.09785 84.8602 10.6937 86.5418 11.9666L87.0102 12.3202L90.9036 15.2402C91.394 15.6043 91.8905 15.9779 92.3956 16.358L93.1702 16.9402L145.017 55.8252C147.852 57.9515 148.427 61.9734 146.3 64.8085C144.174 67.6436 140.152 68.2181 137.317 66.0918L134.75 64.1668V114.464C134.75 117.847 134.75 120.765 134.554 123.168C134.347 125.705 133.889 128.228 132.652 130.656C130.807 134.278 127.862 137.223 124.24 139.069C121.812 140.306 119.288 140.763 116.752 140.971C114.348 141.167 111.43 141.167 108.048 141.167H45.9528C42.5703 141.167 39.6523 141.167 37.2488 140.971C34.712 140.763 32.1889 140.306 29.7609 139.069C26.1388 137.223 23.1939 134.278 21.3484 130.656C20.1113 128.228 19.6537 125.705 19.4464 123.168C19.25 120.765 19.2501 117.847 19.2502 114.464L19.2502 64.1668L16.6835 66.0918C13.8485 68.2181 9.82651 67.6436 7.70021 64.8085C5.57392 61.9734 6.14849 57.9515 8.98355 55.8252L60.8302 16.9402L61.6046 16.3582C62.1096 15.9782 62.606 15.6047 63.0963 15.2406L66.9902 12.3202L67.4587 11.9666C69.1403 10.6937 71.2486 9.09785 73.7333 8.44379ZM57.7502 87.2668V128.334H96.2502V87.2668C96.2502 83.6732 96.2502 81.8763 95.5509 80.5037C94.9357 79.2964 93.954 78.3147 92.7467 77.6995C91.3741 77.0002 89.5772 77.0002 85.9836 77.0002H68.0169C64.4232 77.0002 62.6264 77.0002 61.2538 77.6995C60.0464 78.3147 59.0648 79.2964 58.4496 80.5037C57.7502 81.8763 57.7502 83.6732 57.7502 87.2668Z" fill="#439017"/>
</svg>
